<svg viewBox="0 0 17 43" fill="none" xmlns="http://www.w3.org/2000/svg">
    <path d="M0 16.1888C0 14.2308 0.615238 12.3776 1.81333 10.5245L8.77524 0H11.8514L6.9619 7.48252C7.44762 7.37762 7.96571 7.34266 8.51619 7.34266C13.4057 7.34266 17 11.014 17 16.1888C17 21.3986 13.4057 25 8.51619 25C3.5619 25 0 21.2587 0 16.1888ZM2.59048 16.1888C2.59048 19.7203 5.11619 22.3427 8.51619 22.3427C11.981 22.3427 14.4095 19.8601 14.4095 16.1888C14.4095 12.5524 11.9486 10 8.51619 10C5.08381 10 2.59048 12.6224 2.59048 16.1888Z"
          fill="#F6FFD2"/>
</svg>
